# xmcd CD database file
#
# Track frame offsets:
#	150
#	33935
#	76295
#	116090
#	145930
#	165107
#	192727
#	230945
#
# Disc length: 3524 seconds
#
# Revision: 5
# Processed by: cddbd v1.5.2PL0 Copyright (c) Steve Scherf et al.
# Submitted via: CDex 1.51
#
DISCID=680dc208
DTITLE=Yim Hok-Man - Master Of Chinese Percussion Disc 2
DYEAR=1999
DGENRE=Folk
TTITLE0=Flying Dragons and Leaping Tigers
TTITLE1=Camel Bells in Tibet
TTITLE2=Popular Festivity
TTITLE3=Xinjiang Girls
TTITLE4=The Menacing Tiger
TTITLE5=Wakeful Lions Celebrating New Year
TTITLE6=Everlasting Joy
TTITLE7=Welcoming Spring
EXTD=Created by MAGI YEAR: 1999
EXTT0=
EXTT1=
EXTT2=
EXTT3=
EXTT4=
EXTT5=
EXTT6=
EXTT7=
PLAYORDER=
